<svg height="510" width="720" xmlns="http://www.w3.org/2000/svg">
<rect height="510" fill="#555" width="720"></rect>
<text fill="#7f7" font-family="Courier New" font-size="12" xml:space="preserve">
<tspan x="10" y="26">13 megabytes installed</tspan>
<tspan x="10" y="42"></tspan>
<tspan x="10" y="58">node_modules</tspan>
<tspan x="10" y="74">└─┬ inquirer@3.0.6 </tspan>
<tspan x="10" y="90">  ├── ansi-escapes@1.4.0 </tspan>
<tspan x="10" y="106">  ├─┬ chalk@1.1.3 </tspan>
<tspan x="10" y="122">  │ ├── ansi-styles@2.2.1 </tspan>
<tspan x="10" y="138">  │ ├── escape-string-regexp@1.0.5 </tspan>
<tspan x="10" y="154">  │ ├── has-ansi@2.0.0 </tspan>
<tspan x="10" y="170">  │ └── supports-color@2.0.0 </tspan>
<tspan x="10" y="186">  ├─┬ cli-cursor@2.1.0 </tspan>
<tspan x="10" y="202">  │ └─┬ restore-cursor@2.0.0 </tspan>
<tspan x="10" y="218">  │   ├─┬ onetime@2.0.1 </tspan>
<tspan x="10" y="234">  │   │ └── mimic-fn@1.1.0 </tspan>
<tspan x="10" y="250">  │   └── signal-exit@3.0.2 </tspan>
<tspan x="10" y="266">  ├── cli-width@2.1.0 </tspan>
<tspan x="10" y="282">  ├─┬ external-editor@2.0.1 </tspan>
<tspan x="10" y="298">  │ └─┬ tmp@0.0.31 </tspan>
<tspan x="10" y="314">  │   └── os-tmpdir@1.0.2 </tspan>
<tspan x="10" y="330">  ├── figures@2.0.0 </tspan>
<tspan x="10" y="346">  ├── lodash@4.17.4 </tspan>
<tspan x="10" y="362">  ├── mute-stream@0.0.7 </tspan>
<tspan x="10" y="378">  ├─┬ run-async@2.3.0 </tspan>
<tspan x="10" y="394">  │ └── is-promise@2.1.0 </tspan>
<tspan x="10" y="410">  ├── rx@4.1.0 </tspan>
<tspan x="10" y="426">  ├─┬ string-width@2.0.0 </tspan>
<tspan x="10" y="442">  │ └── is-fullwidth-code-point@2.0.0 </tspan>
<tspan x="10" y="458">  ├─┬ strip-ansi@3.0.1 </tspan>
<tspan x="10" y="474">  │ └── ansi-regex@2.1.1 </tspan>
<tspan x="10" y="490">  └── through@2.3.8</tspan>
</text>
</svg>
